<?xml version="1.0" encoding="utf-8"?>
<!-- Generator: Fusion 360, Shaper Origin Export Add-In, Version 1.8.0  -->
<svg xmlns="http://www.w3.org/2000/svg" xmlns:xlink="http://www.w3.org/1999/xlink" xmlns:shaper="http://www.shapertools.com/namespaces/shaper" shaper:fusionaddin="version:1.8.0" width="6.5454164cm" height="9.1259835cm" version="1.1" x="0cm" y="0cm" viewBox="0 0 6.5454164 9.1259835" enable-background="new 0 0 6.5454164 9.1259835" xml:space="preserve"><path d="M303.5310371,39.0167513 L303.5310371,39.0167513 303.5276709,38.9876301 303.5255664,38.9586391 303.5246718,38.929777 303.5249353,38.9010423 303.5263054,38.8724336 303.5287301,38.8439495 303.532158,38.8155884 303.5365371,38.7873491 303.5418158,38.75923 303.5479423,38.7312296 303.554865,38.7033467 303.5625321,38.6755796 303.5708918,38.6479271 303.5798926,38.6203876 303.5996101,38.5656421 303.5996101,38.5656421 303.6165849,38.5228095 303.6346281,38.4806228 303.6537105,38.4390682 303.673803,38.3981317 303.6948766,38.3577996 303.7169021,38.3180579 303.7398504,38.2788929 303.7636926,38.2402905 303.7883995,38.202237 303.813942,38.1647185 303.8402911,38.1277212 303.8674176,38.0912311 303.8952925,38.0552344 303.9238867,38.0197173 303.9531711,37.9846658 303.9831167,37.9500662 303.9831167,37.9500662 304.0170572,37.9122374 304.0516376,37.8751585 304.0868753,37.8388575 304.1227873,37.8033625 304.1593908,37.7687016 304.196703,37.7349028 304.234741,37.7019942 304.2735221,37.6700039 304.3130634,37.6389599 304.3533821,37.6088904 304.3944953,37.5798233 304.4364202,37.5517868 304.4791739,37.5248089 304.5227738,37.4989178 304.5672368,37.4741414 304.6125802,37.4505079 304.6125802,37.4505079 304.6456059,37.4342781 304.6787358,37.4187899 304.7119697,37.404043 304.7453075,37.3900371 304.7787492,37.376772 304.8122946,37.3642473 304.8459434,37.3524629 304.8796958,37.3414183 304.9135514,37.3311133 304.9475101,37.3215476 304.9815719,37.3127209 305.0157366,37.304633 305.0500041,37.2972835 305.0843742,37.2906722 305.1188469,37.2847987 305.1534219,37.2796629 305.1880992,37.2752643 305.2228786,37.2716028 305.2577601,37.268678 305.2927434,37.2664897 305.3278284,37.2650374 305.3630151,37.2643211 305.3983032,37.2643403 305.4336927,37.2650949 305.4691835,37.2665844 305.5047753,37.2688087 305.5404681,37.2717674 305.5762618,37.2754602 305.6121561,37.2798869 305.6481511,37.2850472 305.6842465,37.2909407 305.7204422,37.2975673 305.7204422,37.2975673 305.7350353,37.3003681 A8.0236232,8.0236232 282.2678695 0,1 305.8505734,37.3263861 A18.0564126,18.0564126 17.5716318 0,0 305.89629,37.1798603 A3.7073263,3.7073263 98.8537128 0,1 305.8240633,37.167878 L305.8240633,37.167878 305.7868674,37.158487 305.7499158,37.1485286 305.7132254,37.1379642 305.6768131,37.1267552 305.6406957,37.114863 305.6048904,37.1022491 305.5694139,37.0888748 305.5342833,37.0747016 305.4995154,37.0596909 305.4651272,37.0438042 305.4311357,37.0270029 305.3975577,37.0092483 305.3644102,36.990502 305.3317101,36.9707253 305.2994744,36.9498797 305.26772,36.9279266 305.26772,36.9279266 305.2293824,36.8991795 305.1930771,36.8691946 305.1588007,36.8379722 305.12655,36.8055127 305.0963217,36.7718167 305.0681126,36.7368845 305.0419193,36.7007166 305.0177385,36.6633133 304.995567,36.6246753 304.9754015,36.5848028 304.9572387,36.5436964 304.9410753,36.5013564 304.9269081,36.4577833 304.9147337,36.4129775 304.9045489,36.3669395 304.8963504,36.3196697 304.8963504,36.3196697 304.8914621,36.2844419 304.8874114,36.2493557 304.8841831,36.2144089 304.8817616,36.1795991 304.8801315,36.144924 304.8792773,36.1103811 304.8791836,36.0759681 304.879835,36.0416827 304.8812159,36.0075226 304.883311,35.9734852 304.8861048,35.9395684 304.8895818,35.9057697 304.8937266,35.8720868 304.8985238,35.8385173 304.9039578,35.8050589 304.9100133,35.7717091 304.9239269,35.7053263 304.9401409,35.6393501 304.9585318,35.5737615 304.9789759,35.5085417 305.0013497,35.4436719 305.0255296,35.3791331 305.0513919,35.3149066 305.0788132,35.2509734 305.0788132,35.2509734 305.0937218,35.2179583 305.1091302,35.1853116 305.1414124,35.1210991 305.1755911,35.0582878 305.2115978,34.9968295 305.249364,34.9366758 305.288821,34.8777786 305.3299002,34.8200895 305.3725332,34.7635605 305.4166512,34.7081431 305.4621859,34.6537892 305.5090685,34.6004505 305.5572305,34.5480788 305.6066034,34.4966259 305.6571186,34.4460434 305.7087074,34.3962832 305.7613014,34.3472971 305.7613014,34.3472971 305.8281353,34.2870565 305.8958866,34.2279677 305.9645796,34.1700602 306.0342385,34.1133638 306.1048876,34.0579078 306.176551,34.0037221 306.2492532,33.950836 306.3230182,33.8992794 306.4029656,33.8445331 306.3054312,33.8445331 306.3054312,33.8445331 306.2693449,33.8426872 306.2333731,33.8402478 306.1975207,33.8371955 306.1617926,33.8335107 306.1261935,33.8291741 306.0907283,33.8241659 306.0554019,33.8184668 306.020219,33.8120572 305.9851846,33.8049176 305.9503034,33.7970285 305.9155804,33.7883703 305.8810202,33.7789237 305.8466278,33.768669 305.8124081,33.7575867 305.7783658,33.7456574 305.7445058,33.7328615 305.7445058,33.7328615 305.7150654,33.720957 305.6860576,33.7084432 305.6575272,33.695264 305.629519,33.6813631 305.6020778,33.6666844 305.5752486,33.6511717 305.5490762,33.6347687 305.5236053,33.6174193 305.4988808,33.5990674 305.4749476,33.5796567 305.4518506,33.559131 305.4296344,33.5374342 305.408344,33.51451 305.3880243,33.4903023 305.36872,33.4647549 305.350476,33.4378116 305.350476,33.4378116 305.3379048,33.4172844 305.3262543,33.3964706 305.3154971,33.3753807 305.3056053,33.3540254 305.2965513,33.3324153 305.2883076,33.3105609 305.2808464,33.288473 305.27414,33.266162 305.268161,33.2436387 305.2628815,33.2209136 305.258274,33.1979972 305.2543108,33.1749003 305.2509642,33.1516335 305.2482067,33.1282072 305.244348,33.0809191 305.244348,33.0809191 305.2422837,33.0379691 305.2411711,32.9952672 305.2409958,32.9528097 305.2417436,32.9105931 305.2434001,32.8686139 305.2459511,32.8268684 305.2493822,32.7853531 305.2536791,32.7440645 305.2588276,32.702999 305.2648133,32.662153 305.271622,32.621523 305.2792392,32.5811054 305.2876508,32.5408967 305.2968424,32.5008932 305.3067996,32.4610916 305.3175083,32.4214881 305.3289541,32.3820792 305.3411226,32.3428614 305.3539997,32.3038311 305.3675709,32.2649847 305.381822,32.2263187 305.3967387,32.1878296 305.4123066,32.1495137 305.4285115,32.1113676 305.4453391,32.0733875 305.462775,32.0355701 305.4808049,31.9979117 305.4994146,31.9604088 305.5383161,31.8858552 305.5793648,31.8118807 305.5793648,31.8118807 305.6244195,31.734733 305.6708534,31.6587143 305.718693,31.5838495 305.7679651,31.5101638 305.818696,31.4376822 305.8709124,31.3664299 305.9246408,31.2964319 305.9799077,31.2277133 306.0367398,31.1602992 306.0951635,31.0942147 306.1552055,31.0294848 306.2168923,30.9661346 306.2802504,30.9041892 306.3453063,30.8436737 306.4120868,30.7846132 306.4806182,30.7270327 306.4806182,30.7270327 306.5146231,30.69965 306.5490179,30.6729222 306.5838322,30.6469136 306.6190956,30.6216882 306.6548376,30.5973101 306.6910877,30.5738435 306.7278755,30.5513526 306.7652304,30.5299014 306.8031821,30.5095541 306.8417601,30.4903748 306.8809939,30.4724276 306.9209131,30.4557767 306.9615471,30.4404862 307.0029256,30.4266202 307.045078,30.4142429 307.0880339,30.4034184 307.0880339,30.4034184 307.1222514,30.3962017 307.1565002,30.3905511 307.1907679,30.386746 307.2250424,30.3850656 307.2421783,30.3851095 307.2593113,30.3857893 307.2764398,30.38714 307.2935623,30.3891964 307.3106774,30.3919934 307.3277833,30.3955661 307.3448787,30.3999492 307.3619619,30.4051778 307.3619619,30.4051778 307.3745189,30.4096482 307.3861935,30.4144444 307.3969975,30.4195793 307.4069427,30.4250657 307.4160411,30.4309166 307.4243045,30.4371447 307.4317449,30.4437629 307.4383741,30.4507842 307.4442039,30.4582213 307.4492463,30.4660871 307.4535132,30.4743945 307.4570164,30.4831564 307.4597679,30.4923855 307.4617794,30.5020949 307.4630629,30.5122972 307.4636302,30.5230055 307.4636302,30.5230055 307.4635041,30.5367144 307.4625824,30.5498696 307.4608656,30.5624675 307.4583541,30.5745045 307.4550486,30.5859772 307.4509496,30.5968821 307.4460575,30.6072155 307.440373,30.616974 307.4338966,30.6261541 307.4266288,30.6347523 307.4185701,30.642765 307.4097211,30.6501888 307.4000823,30.65702 307.3896543,30.6632552 307.3784375,30.6688909 307.3664326,30.6739235 307.3664326,30.6739235 307.3536026,30.6784666 307.3407932,30.6823033 307.3280057,30.6854393 307.3152413,30.6878806 307.3025013,30.6896329 307.2897869,30.6907019 307.2770994,30.6910935 307.26444,30.6908135 307.25181,30.6898677 307.2392106,30.6882618 307.2266432,30.6860016 307.2141088,30.683093 307.2016089,30.6795418 307.1891446,30.6753536 307.1767172,30.6705344 307.164328,30.6650899 307.164328,30.6650899 307.1242211,30.6454929 307.0850214,30.6241632 307.0850214,30.6241632 307.0648368,30.6133591 307.0446822,30.604223 307.0245533,30.5967088 307.0044458,30.5907704 306.9843555,30.586362 306.964278,30.5834375 306.944209,30.5819508 306.9241443,30.5818561 306.9040795,30.5831072 306.8840103,30.5856582 306.8639325,30.589463 306.8438417,30.5944757 306.8237337,30.6006503 306.8036042,30.6079407 306.7834488,30.616301 306.7632633,30.6256851 306.7632633,30.6256851 306.7369982,30.63897 306.7111816,30.6528865 306.6857943,30.6674044 306.6608173,30.6824932 306.6362314,30.6981227 306.6120177,30.7142623 306.5646301,30.7479507 306.5185018,30.7833155 306.4734802,30.8201136 306.4294125,30.858102 306.386146,30.8970378 306.386146,30.8970378 306.3468892,30.9335602 306.3083209,30.9705459 306.2704396,31.0079934 306.2332439,31.0459014 306.1967324,31.0842685 306.1609038,31.1230933 306.1257565,31.1623746 306.0912891,31.2021108 306.0575002,31.2423007 306.0243884,31.2829429 305.9919523,31.324036 305.9601905,31.3655787 305.9291014,31.4075695 305.8986838,31.4500073 305.8689361,31.4928904 305.839857,31.5362177 305.811445,31.5799878 305.7836987,31.6241992 305.7566167,31.6688506 305.7301976,31.7139406 305.7044399,31.759468 305.6793422,31.8054313 305.654903,31.8518291 305.6311211,31.8986601 305.6079949,31.945923 305.585523,31.9936163 305.563704,32.0417387 305.5425364,32.0902888 305.522019,32.1392654 305.5021501,32.1886669 305.4829284,32.238492 305.4643526,32.2887395 305.4643526,32.2887395 305.4394591,32.3603348 305.4166163,32.4324545 305.4060675,32.4687199 305.3961557,32.5051269 305.3869222,32.5416791 305.3784085,32.5783802 305.370656,32.6152335 305.363706,32.6522426 305.3576002,32.6894112 305.3523797,32.7267426 305.3480861,32.7642404 305.3447608,32.8019083 305.3424452,32.8397496 305.3411807,32.877768 305.3411807,32.877768 305.3410422,32.9052171 305.3416845,32.9320707 305.343111,32.9583302 305.3453248,32.983997 305.348329,33.0090726 305.3521268,33.0335584 305.3567213,33.057456 305.3621159,33.0807666 305.3683135,33.1034918 305.3753174,33.1256331 305.3831308,33.1471918 305.3917568,33.1681693 305.4011985,33.1885673 305.4114592,33.208387 305.4225421,33.2276299 305.4344502,33.2462976 305.4471867,33.2643913 305.4607549,33.2819126 305.4751579,33.2988629 305.4903989,33.3152437 305.5064809,33.3310563 305.5234073,33.3463023 305.5411811,33.3609831 305.5598056,33.3751001 305.5792838,33.3886547 305.599619,33.4016485 305.6208144,33.4140828 305.642873,33.4259592 305.6657981,33.4372789 305.6895928,33.4480436 305.7142604,33.4582546 305.7398039,33.4679134 305.7398039,33.4679134 305.800622,33.4887773 305.8616399,33.5074925 305.9228516,33.5240233 305.9842507,33.5383342 306.0458311,33.5503894 306.1075868,33.5601534 306.1695115,33.5675905 306.231599,33.5726653 306.2627019,33.5743056 306.2938433,33.5753419 306.3250222,33.5757699 306.356238,33.5755849 306.38749,33.5747826 306.4187772,33.5733586 306.450099,33.5713084 306.4814546,33.5686274 306.5128432,33.5653113 306.5442641,33.5613557 306.5757164,33.556756 306.6071994,33.5515079 306.6387124,33.5456068 306.6702545,33.5390483 306.701825,33.5318279 306.7334232,33.5239413 306.7334232,33.5239413 306.7621584,33.5162849 306.7621584,33.5162849 306.7891549,33.505869 306.8177236,33.4947645 306.8329003,33.4888213 306.8489321,33.4825036 306.8660461,33.475712 306.8844399,33.4683597 306.9107606,33.3589632 306.9107606,33.3589632 306.9431815,33.2133982 306.9762064,33.0679794 307.0100823,32.9227711 307.0450565,32.7778376 307.081376,32.6332432 307.1192878,32.4890522 307.159039,32.3453291 307.2008768,32.202138 307.2008768,32.202138 307.2188925,32.1443623 307.2379629,32.0873742 307.2580875,32.0311742 307.2792663,31.9757625 307.3014988,31.9211398 307.3247848,31.8673064 307.349124,31.8142627 307.3745163,31.7620092 307.4009612,31.7105463 307.4284586,31.6598745 307.4570082,31.6099941 307.4866096,31.5609056 307.5172627,31.5126094 307.5489672,31.4651059 307.5817227,31.4183957 307.6155291,31.372479 307.6503861,31.3273564 307.6862933,31.2830283 307.7232506,31.239495 307.7612576,31.1967571 307.8003141,31.1548149 307.8404198,31.113669 307.8815745,31.0733196 307.9237778,31.0337673 307.9670296,30.9950124 308.0113295,30.9570555 308.0566773,30.9198969 308.1030727,30.883537 308.1505154,30.8479763 308.1990052,30.8132153 308.2485418,30.7792543 308.2991249,30.7460938 308.2991249,30.7460938 308.3291217,30.7272158 308.3593985,30.7088885 308.3899649,30.6911497 308.4208307,30.6740366 308.4520054,30.6575871 308.4834989,30.6418384 308.5153209,30.6268282 308.5474809,30.612594 308.5799888,30.5991734 308.6128542,30.5866038 308.6460868,30.5749229 308.6796964,30.564168 308.7136925,30.5543769 308.748085,30.5455869 308.7828834,30.5378357 308.8180976,30.5311607 308.8180976,30.5311607 308.8518115,30.5257484 308.8855745,30.5213145 308.9193796,30.5180921 308.9532198,30.5163142 308.9870882,30.5162141 309.0209778,30.5180248 309.0548816,30.5219794 309.0718367,30.5248336 309.0887927,30.5283111 309.0887927,30.5283111 309.1188462,30.5359624 309.1188462,30.5359624 309.1469332,30.545095 309.1741265,30.5560689 309.2004449,30.5687427 309.2258621,30.5830116 309.2502835,30.5988652 309.2735441,30.6164048 309.2846741,30.6258635 309.2954343,30.6358177 309.3058005,30.6462929 309.3157555,30.6573082 309.3157555,30.6573082 309.327346,30.6714324 309.3382593,30.6861678 309.3484916,30.701508 309.3580384,30.7174463 309.3668959,30.7339763 309.3750598,30.7510915 309.382526,30.7687852 309.3892904,30.7870511 309.395349,30.8058824 309.4006974,30.8252728 309.4053317,30.8452156 309.4092478,30.8657043 309.4124414,30.8867325 309.4149085,30.9082935 309.416645,30.9303808 309.4176467,30.952988 309.4176467,30.952988 309.4181935,31.0058613 309.4169446,31.0583532 309.4139738,31.1104808 309.4093551,31.1622611 309.4031622,31.2137113 309.3954691,31.2648484 309.3863495,31.3156896 309.3758773,31.3662519 309.3641264,31.4165525 309.3511705,31.4666083 309.3370836,31.5164366 309.3219394,31.5660543 309.3058119,31.6154787 309.2887748,31.6647267 309.2709021,31.7138155 309.2522674,31.7627622 309.2522674,31.7627622 309.2236162,31.8336863 309.1932333,31.9034937 309.1611511,31.972206 309.1274021,32.0398448 309.0920184,32.1064318 309.0550325,32.1719884 309.0164766,32.2365365 308.9763832,32.3000975 308.9347845,32.3626932 308.8917129,32.4243451 308.8472007,32.4850748 308.8012802,32.5449041 308.7539838,32.6038544 308.7053439,32.6619476 308.6553927,32.719205 308.6041626,32.7756485 308.6041626,32.7756485 308.5490509,32.8346691 308.4934305,32.8931221 308.437274,32.9509766 308.3805535,33.0082018 308.3232416,33.064767 308.2653106,33.1206412 308.2067328,33.1757936 308.1474806,33.2301935 308.0875265,33.28381 308.0268427,33.3366122 307.9654017,33.3885695 307.9031758,33.4396508 307.8401375,33.4898254 307.776259,33.5390626 307.7115127,33.5873314 307.6458711,33.634601 307.4801894,33.7518085 307.4635639,33.8514013 307.4635639,33.8514013 307.4512281,33.9569963 307.4369967,34.0628825 307.4218076,34.1696483 307.4065988,34.2778818 307.4049589,34.2879222 307.4049589,34.2879222 307.4215604,34.2881782 307.4369048,34.2884703 307.4511031,34.288816 307.4643255,34.2892427 307.4887474,34.2904923 307.5122689,34.2925928 307.5244156,34.2941025 307.5372001,34.296 307.5508837,34.2983487 307.5656953,34.3012117 307.5818213,34.3046511 307.5993958,34.3087269 307.618497,34.3134961 307.639152,34.3190134 307.6613453,34.3253319 307.6850253,34.3325036 307.7101104,34.3405797 307.7364939,34.3496108 307.7640486,34.359647 307.7926318,34.3707381 307.8220904,34.3829332 307.852265,34.3962806 307.8829952,34.4108274 307.9141231,34.4266192 307.945498,34.4436991 307.97698,34.4621072 308.0084449,34.4818791 308.0397884,34.5030455 308.0709302,34.5256299 308.101819,34.5496481 308.1252266,34.5378496 308.1252266,34.5378496 308.1556819,34.5257708 308.1860381,34.5147701 308.2162963,34.5048353 308.2464574,34.4959542 308.2765226,34.4881147 308.3064928,34.4813046 308.3363691,34.4755119 308.3661525,34.4707243 308.395844,34.4669297 308.4254447,34.464116 308.4549556,34.462271 308.4843778,34.4613827 308.5137122,34.4614388 308.5429599,34.4624272 308.5721219,34.4643357 308.6011993,34.4671523 308.6301931,34.4708648 308.6591043,34.475461 308.6879339,34.4809288 308.7166831,34.4872561 308.7453527,34.4944306 308.7739439,34.5024404 308.8024577,34.5112731 308.8308951,34.5209168 308.8592571,34.5313592 308.8875448,34.5425882 308.9157592,34.5545917 308.9439013,34.5673574 308.9719722,34.5808734 308.9999729,34.5951274 309.0279044,34.6101072 309.0557678,34.6258008 A1.7957499,1.7957499 303.05783 0,1 309.3705633,34.8861168 L309.3705633,34.8861168 309.3501863,34.8731172 309.3294924,34.8611367 309.3084961,34.8501338 309.2872117,34.8400672 309.2656537,34.8308955 309.2438365,34.8225773 309.2217745,34.8150711 309.1994822,34.8083357 309.1769739,34.8023296 309.1542641,34.7970113 309.1313673,34.7923396 309.1082977,34.7882731 309.0616984,34.7817898 309.0145815,34.7772302 309.0145815,34.7772302 308.9414813,34.7723727 308.8684383,34.7694254 308.7954776,34.7686428 308.7590359,34.769143 308.7226241,34.7702799 308.6862454,34.7720853 308.6499028,34.7745912 308.6135995,34.7778294 308.5773387,34.7818317 308.5411233,34.7866299 308.5049566,34.7922559 308.4688417,34.7987416 308.4327817,34.8061187 A2.0691752,2.0691752 256.4460759 0,0 308.3032934,34.8418195 A0.8953058,0.8953058 336.8426255 0,1 308.343278,34.9561289 L308.343278,34.9561289 308.3546247,35.0004014 308.3643376,35.0447143 308.372458,35.0890635 308.3790273,35.1334446 308.3840871,35.1778536 308.3876786,35.2222862 308.3898434,35.266738 308.3906227,35.311205 308.3900581,35.3556828 308.3881909,35.4001672 308.3850626,35.4446541 308.3807145,35.4891391 308.3751881,35.5336181 308.3685247,35.5780868 308.3607659,35.622541 308.351953,35.6669764 308.351953,35.6669764 308.3380841,35.728913 308.3227364,35.7896613 308.305916,35.849225 308.2876286,35.9076081 308.2678803,35.9648143 308.2466771,36.0208475 308.2240248,36.0757113 308.1999295,36.1294098 308.174397,36.1819465 308.1474334,36.2333254 308.1190447,36.2835503 308.0892366,36.332625 308.0580153,36.3805532 308.0253866,36.4273389 307.9913566,36.4729857 307.9559311,36.5174975 307.9191162,36.5608782 307.8809177,36.6031315 307.8413417,36.6442612 307.800394,36.6842711 307.7580807,36.7231651 307.7144077,36.760947 307.6693809,36.7976205 307.6230063,36.8331894 307.5752899,36.8676577 307.5262376,36.901029 307.4758554,36.9333073 307.4241492,36.9644962 307.3711249,36.9945997 307.3167886,37.0236214 307.2611462,37.0515653 307.2042036,37.0784352 307.2042036,37.0784352 307.1729681,37.0922962 307.1414889,37.1054334 307.1097737,37.117855 307.0778302,37.129569 307.0456663,37.1405837 307.0132897,37.1509073 306.9807083,37.160548 306.9479297,37.1695139 306.9149618,37.1778132 306.8818123,37.1854541 306.8484891,37.1924448 306.8149999,37.1987934 306.7813525,37.2045082 306.7475547,37.2095973 306.7136143,37.214069 306.679539,37.2179313 A3.7073263,3.7073263 86.7118012 0,1 306.6313694,37.2203845 A8.8525145,8.8525145 21.9170094 0,1 306.5089784,37.5096524 A8.0236232,8.0236232 287.9953918 0,1 306.5662432,37.5284919 L306.5662432,37.5284919 306.9074819,37.6489209 307.2480941,37.7711158 307.2480941,37.7711158 307.5232041,37.8703786 307.6609118,37.9195648 307.798822,37.9681599 307.9370104,38.015943 308.0755523,38.0626934 308.2145234,38.1081903 308.3539992,38.1522129 308.3539992,38.1522129 308.4655337,38.1860161 308.5774443,38.2183069 308.689801,38.2487142 308.7461687,38.2630956 308.8026742,38.2768669 308.8593264,38.2899818 308.9161341,38.302394 308.973106,38.314057 309.0302508,38.3249245 309.0875775,38.33495 309.1450947,38.3440872 309.2028112,38.3522898 309.2607359,38.3595113 A1.5450092,1.5450092 96.4726428 0,0 310.0700881,38.2327512 L310.0700881,38.2327512 310.0184315,38.276493 309.9658187,38.3182159 309.9122404,38.3578964 309.8576872,38.395511 309.8021496,38.431036 309.7456181,38.464448 309.6880833,38.4957234 309.6295358,38.5248386 309.5998792,38.5385788 309.569966,38.5517701 309.5397948,38.5644097 309.5093646,38.5764944 309.4786741,38.5880215 309.4477221,38.5989879 309.4165075,38.6093908 309.385029,38.6192271 309.3532856,38.6284939 309.3212759,38.6371883 309.288999,38.6453074 309.2564534,38.6528482 309.2236382,38.6598077 309.190552,38.666183 309.1571937,38.6719712 309.1235622,38.6771693 309.1235622,38.6771693 309.0708745,38.6840899 309.0182388,38.6895773 308.9656537,38.6936783 308.913118,38.6964395 308.8606304,38.6979077 308.8081895,38.6981294 308.755794,38.6971514 308.7034426,38.6950202 308.6511341,38.6917826 308.5988671,38.6874852 308.5466402,38.6821746 308.4944523,38.6758976 308.442302,38.6687008 308.3901879,38.6606309 308.3381088,38.6517345 308.2860634,38.6420582 308.2860634,38.6420582 308.2009872,38.6246203 308.1165037,38.6053748 308.0325736,38.5844414 307.9491578,38.5619394 307.866217,38.5379883 307.7837119,38.5127077 307.7016034,38.486217 307.6198522,38.4586357 307.538419,38.4300833 307.4572647,38.4006792 307.37635,38.370543 307.2956357,38.3397941 307.1346512,38.2769362 306.9739975,38.2130613 306.9739975,38.2130613 306.3663199,37.9704586 A14.7117739,14.7117739 288.9535319 0,0 306.2997963,37.9477905 A8.8525145,8.8525145 27.0927746 0,1 306.2689836,38.0074634 L306.2689836,38.0074634 306.2236667,38.0923212 306.1769965,38.1763856 306.1288626,38.2596375 306.0791546,38.3420581 306.0277622,38.4236283 305.974575,38.5043292 305.9194825,38.5841418 305.8623744,38.6630471 305.8623744,38.6630471 305.821504,38.7161243 305.7798884,38.7682562 305.7374459,38.8193478 305.6940946,38.8693042 305.6497525,38.9180302 305.604338,38.9654309 305.5577689,39.011411 305.5099637,39.0558757 305.4608402,39.0987299 305.4103168,39.1398784 305.3583115,39.1792263 305.3317275,39.1981953 305.3047424,39.2166786 305.2773459,39.2346641 305.2495278,39.2521401 305.2212778,39.2690946 305.1925856,39.2855158 305.1634412,39.3013917 305.1338342,39.3167106 305.1037544,39.3314606 305.0731916,39.3456296 305.0731916,39.3456296 305.0402954,39.3601281 305.0073258,39.3740205 304.9742829,39.387298 304.9411672,39.3999517 304.9079791,39.4119729 304.8747189,39.4233526 304.841387,39.4340819 304.8079838,39.4441521 304.7745096,39.4535542 304.7409647,39.4622795 304.7073496,39.470319 304.6736647,39.4776639 304.6399102,39.4843053 304.6060866,39.4902344 304.5721942,39.4954423 304.5382334,39.4999202 304.5042045,39.5036592 304.4701079,39.5066505 304.4359441,39.5088851 304.4017133,39.5103543 304.3674159,39.5110492 304.3330522,39.5109609 304.2986228,39.5100805 304.2641278,39.5083993 304.2295678,39.5059083 304.1949429,39.5025987 304.1602537,39.4984617 304.1255005,39.4934883 304.0906836,39.4876698 304.0558034,39.4809972 304.0208603,39.4734617 303.9858547,39.4650545 303.9858547,39.4650545 303.9591222,39.4578808 303.932747,39.4499525 303.906733,39.4412783 303.8810903,39.4318644 303.855837,39.4217095 303.8310013,39.4108002 303.8066221,39.3991088 303.78275,39.3865908 303.7594469,39.373185 303.736785,39.3588137 303.7148454,39.3433849 303.6937153,39.3267959 303.6734829,39.3089392 303.6542328,39.28971 303.6360385,39.2690154 303.6189525,39.2467883 303.6189525,39.2467883 303.6027412,39.222611 303.5879525,39.1971621 303.5746209,39.1704235 303.5627814,39.1423771 303.5524685,39.1130048 303.543717,39.0822885 303.5365616,39.0502101 303.5310371,39.0167513z" transform="matrix(1,0,0,-1,-303.5246718,39.5110492)" fill="rgb(0,0,0)" stroke-linecap="round" stroke-linejoin="round" /><path d="M308.0345088,34.946455 A2.0691752,2.0691752 244.7328509 0,0 308.0170597,34.9547909 L308.0170597,34.9547909 307.9435907,34.9910623 307.8690664,35.0278764 307.793022,35.0654842 307.7542845,35.0846643 307.7149927,35.1041371 307.7149927,35.1041371 307.6076466,35.1583465 307.5006537,35.213295 307.4468856,35.2401785 307.3927211,35.2662055 307.3379984,35.2910287 307.282556,35.3143011 A1.9783829,1.9783829 69.5119832 0,1 307.2134578,35.338671 L307.1948179,35.421135 307.1948179,35.421135 307.1538343,35.5928727 307.1107528,35.7640089 307.0883776,35.8493367 307.0654209,35.9344964 307.0418635,36.0194823 307.0176864,36.1042883 306.9928706,36.1889087 306.967397,36.2733375 306.9412465,36.3575688 306.9144002,36.4415969 306.886839,36.5254157 306.8585438,36.6090195 306.8294957,36.6924022 306.7996755,36.7755582 306.7996755,36.7755582 306.779848,36.8296647 306.7595817,36.8844035 306.7387221,36.9405107 306.7280215,36.9693075 306.7171145,36.9987223 306.7171145,36.9987223 306.725387,36.9968172 306.7329487,36.9951658 306.7462879,36.99232 306.7578279,36.9895767 306.7682645,36.9863278 306.7682645,36.9863278 306.8042767,36.9727847 306.8399966,36.9586 306.8754028,36.9437295 306.910474,36.9281294 306.9451888,36.9117557 306.9795258,36.8945645 307.0134637,36.8765118 307.0469811,36.8575535 307.0469811,36.8575535 307.0796413,36.8380497 307.1117019,36.8179986 307.1431694,36.7974067 307.17405,36.7762803 307.2043501,36.7546259 307.234076,36.7324496 307.2632339,36.709758 307.2918303,36.6865574 307.3198713,36.6628542 307.3473635,36.6386547 307.3743129,36.6139652 307.400726,36.5887922 307.4266091,36.5631421 307.4519685,36.5370211 307.4768105,36.5104357 307.5011414,36.4833922 307.5249676,36.4558969 307.5482953,36.4279563 307.5711309,36.3995768 307.5934806,36.3707646 307.6153508,36.3415261 307.6367479,36.3118678 307.657678,36.2817959 307.6781476,36.2513169 307.7177304,36.1891629 307.7555466,36.1254566 307.7916469,36.060249 307.8260818,35.993591 307.8260818,35.993591 307.8540151,35.9361748 307.8805917,35.8784147 307.9056914,35.8202883 307.9291939,35.7617733 307.9509789,35.7028471 307.9709261,35.6434875 307.9889152,35.5836718 308.004826,35.5233779 308.0185381,35.4625831 308.0245321,35.4319909 308.0299312,35.4012651 308.0347206,35.3704029 308.0388852,35.3394014 308.0424098,35.308258 308.0452796,35.2769698 308.0474794,35.2455339 308.0489942,35.2139476 308.049809,35.1822081 308.0499087,35.1503125 308.0492784,35.1182582 308.0479029,35.0860422 308.0457672,35.0536617 308.0428563,35.021114 A0.6917031,0.6917031 356.7332629 0,0 308.0345088,34.946455z" transform="matrix(1,0,0,-1,-303.5246718,39.5110492)" fill="rgb(255,255,255)" stroke="rgb(0,0,0)" stroke-width="0.0010cm" stroke-linecap="round" stroke-linejoin="round" /><path d="M305.7067976,37.7611695 A14.7117739,14.7117739 286.2585132 0,0 305.672541,37.7512242 L305.672541,37.7512242 305.6276429,37.7403261 305.5826951,37.7302555 305.5376948,37.7210678 305.4926394,37.7128182 305.447526,37.7055619 305.402352,37.6993542 305.3571145,37.6942502 305.311811,37.6903054 305.2664387,37.6875748 305.2209947,37.6861138 305.1754765,37.6859777 305.1298813,37.6872216 305.0842063,37.6899007 305.0384488,37.6940705 304.9926061,37.699786 304.9466754,37.7071026 304.9466754,37.7071026 304.8839694,37.7190447 304.8219498,37.7325868 304.7606392,37.7477681 304.7000601,37.764628 304.640235,37.783206 304.5811864,37.8035412 304.522937,37.8256732 304.4655091,37.8496412 304.4089253,37.8754846 304.3532082,37.9032428 304.2983803,37.9329551 304.2444641,37.9646608 304.1914821,37.9983994 304.1394568,38.0342102 304.0884109,38.0721325 304.0383667,38.1122056 304.0383667,38.1122056 304.0004484,38.144597 303.9637121,38.1778431 303.9282373,38.2119836 303.894103,38.2470588 303.8613887,38.2831083 303.8301735,38.3201723 303.8005368,38.3582907 303.7725578,38.3975034 303.7463159,38.4378503 303.7218902,38.4793715 303.6993601,38.5221069 303.6788048,38.5660963 303.6692925,38.5885738 303.6603036,38.6113798 303.6518481,38.6345194 303.6439359,38.6579974 303.6365768,38.6818189 303.6297808,38.7059889 303.6235577,38.7305124 303.6179176,38.7553943 303.6179176,38.7553943 303.6113048,38.7898254 303.6062719,38.8239495 303.6029069,38.8577262 303.6012981,38.8911149 303.6015337,38.9240753 303.6037017,38.9565669 303.6078903,38.9885491 303.6141878,39.0199815 303.6226822,39.0508237 303.6277808,39.0660107 303.6334617,39.0810351 303.6397359,39.0958916 303.6466145,39.1105752 303.6541084,39.125081 303.6622287,39.1394037 303.6709864,39.1535384 303.6803925,39.16748 303.690458,39.1812235 303.701194,39.1947637 303.7126115,39.2080956 303.7247215,39.2212142 303.737535,39.2341144 303.751063,39.2467912 303.751063,39.2467912 303.7674669,39.2611351 303.7840673,39.2746796 303.8008597,39.2874383 303.8178395,39.299425 303.8350022,39.3106534 303.8523433,39.3211372 303.8698583,39.3308901 303.8875427,39.3399259 303.905392,39.3482582 303.9234016,39.3559007 303.941567,39.3628673 303.9598837,39.3691715 303.9783472,39.3748271 303.996953,39.3798479 304.0156966,39.3842475 304.0345734,39.3880396 304.0727087,39.3938564 304.1113227,39.3974078 304.1503794,39.3988038 304.1898426,39.3981539 304.2296762,39.3955679 304.2698441,39.3911554 304.31031,39.3850263 304.3510379,39.3772901 304.3510379,39.3772901 304.3858467,39.3692383 304.4199527,39.3597685 304.4533838,39.3489451 304.486168,39.3368326 304.5183331,39.3234954 304.549907,39.3089978 304.5809176,39.2934043 304.611393,39.2767792 304.6413608,39.259187 304.6708492,39.2406922 304.6998859,39.221359 304.7284989,39.2012519 304.7567161,39.1804353 304.7845654,39.1589736 304.8120747,39.1369312 304.8392719,39.1143726 304.8392719,39.1143726 304.8772957,39.0815144 304.914396,39.047844 304.9506164,39.0133858 304.9860002,38.9781637 305.0205911,38.9422019 305.0544324,38.9055246 305.0875676,38.868156 305.1200402,38.8301201 305.1518937,38.7914412 305.1831715,38.7521434 305.2139172,38.7122508 305.2441741,38.6717877 305.2739858,38.630778 305.3033958,38.5892461 305.3611842,38.504712 305.3611842,38.504712 305.4117213,38.4222834 305.4366702,38.3808919 305.4607155,38.3389996 305.4607155,38.3389996 305.4955967,38.2746486 305.5290891,38.2096853 305.5610371,38.144045 305.5912852,38.0776629 305.6196779,38.0104744 305.6460599,37.9424148 305.6584482,37.9080381 305.6702755,37.8734194 305.6815224,37.8385506 305.6921693,37.8034236 A18.0564126,18.0564126 19.166668 0,0 305.7067976,37.7611695z" transform="matrix(1,0,0,-1,-303.5246718,39.5110492)" fill="rgb(255,255,255)" stroke="rgb(0,0,0)" stroke-width="0.0010cm" stroke-linecap="round" stroke-linejoin="round" /><path d="M306.3983715,35.4810557 L306.4104593,35.4350416 A1.3912923,1.3912923 100.053396 0,1 306.3690904,35.4270595 L306.3690904,35.4270595 306.3440687,35.4191898 306.3195295,35.4103258 306.2955977,35.4002944 306.272398,35.3889226 306.2500552,35.3760372 306.2286942,35.361465 306.2084397,35.3450332 306.1987664,35.3360657 306.1894166,35.3265684 306.1894166,35.3265684 306.1797889,35.3159332 306.1707989,35.3052011 306.1624353,35.2943747 306.154687,35.283457 306.1409914,35.261359 306.1296228,35.2389298 306.1204919,35.216192 306.1135092,35.1931685 306.1085855,35.169882 306.1056313,35.1463552 306.1045572,35.1226108 306.105274,35.0986716 306.1076923,35.0745604 306.1117226,35.0502999 306.1172756,35.0259128 306.124262,35.0014218 306.1325924,34.9768497 306.1421775,34.9522193 306.1421775,34.9522193 306.1582875,34.9156238 306.1758574,34.8802252 306.1948437,34.8460052 306.2152033,34.8129452 306.2368927,34.7810269 306.2598686,34.7502319 306.2840877,34.7205417 306.3095066,34.6919379 306.3360821,34.6644021 306.3637709,34.6379158 306.3925294,34.6124607 306.4223146,34.5880183 306.4530829,34.5645702 306.4847912,34.542098 306.517396,34.5205833 306.5508541,34.5000076 A1.6651551,1.6651551 241.0385896 0,1 306.6482014,34.4502352 L306.7099455,34.193609 306.689473,34.2058368 306.689473,34.2058368 306.5539781,34.2902383 306.4867099,34.3330061 306.4198437,34.3762936 306.3534415,34.4202072 306.2875652,34.4648531 306.2222769,34.5103376 306.1576383,34.556767 306.0937115,34.6042476 306.0305584,34.6528858 305.968241,34.7027877 305.9068211,34.7540597 305.8463607,34.8068082 305.7869218,34.8611393 305.7285662,34.9171593 305.6713561,34.9749747 305.6713561,34.9749747 305.6251817,35.0262324 305.580515,35.0785911 305.5374349,35.1321053 305.4960207,35.1868295 305.4563514,35.2428184 305.4185063,35.3001264 305.3825645,35.3588081 305.365332,35.3886811 305.348605,35.418918 305.348605,35.418918 305.3207716,35.4716596 305.294255,35.5247633 305.2691465,35.5782498 305.2455372,35.6321396 305.2235183,35.6864533 305.2031811,35.7412115 305.1846166,35.7964349 305.167916,35.8521441 305.1531706,35.9083597 305.1404714,35.9651022 305.1299098,36.0223923 305.1215767,36.0802506 305.1182745,36.1093993 305.1155636,36.1386977 305.1134554,36.1681485 305.1119614,36.1977542 305.1110929,36.2275174 305.1108614,36.2574407 305.1112782,36.2875267 305.1123548,36.3177779 305.1123548,36.3177779 305.1150887,36.3582328 305.1195141,36.3979343 305.1256601,36.4368615 305.1335559,36.4749934 305.1432305,36.5123094 305.1547132,36.5487885 305.168033,36.5844099 305.183219,36.6191528 305.2003005,36.6529962 305.2193066,36.6859194 305.2402663,36.7179016 305.2632087,36.7489218 305.2881632,36.7789592 305.3151587,36.8079929 305.3442244,36.8360023 305.3753894,36.8629663 305.3753894,36.8629663 305.4033901,36.8849284 305.4319962,36.9054269 305.461183,36.9245241 305.4909256,36.9422822 305.5211992,36.9587632 305.5519789,36.9740295 305.5832398,36.9881431 305.6149572,37.0011662 305.6471061,37.0131611 305.6796618,37.02419 305.7125994,37.0343149 305.745894,37.0435981 305.7795208,37.0521017 305.8134549,37.059888 305.8476716,37.0670191 305.8821459,37.0735572 A2.1169496,2.1169496 96.2985651 0,0 305.9272535,37.0780477 A18.0564127,18.0564127 16.7468988 0,0 305.9404747,37.033906 L305.9404747,37.033906 305.9722846,36.9377911 306.0035066,36.8415037 306.0643258,36.6484521 306.1232109,36.4548325 306.1804403,36.260726 306.2362926,36.0662139 306.2910462,35.8713774 306.3983715,35.4810557z" transform="matrix(1,0,0,-1,-303.5246718,39.5110492)" fill="rgb(255,255,255)" stroke="rgb(0,0,0)" stroke-width="0.0010cm" stroke-linecap="round" stroke-linejoin="round" /><path d="M306.6227489,34.5562924 A1.6501641,1.6501641 243.8698194 0,0 306.498924,34.6237446 L306.498924,34.6237446 306.4725206,34.6418639 306.4466503,34.6604721 306.4213859,34.6796237 306.3968002,34.6993728 306.3729657,34.7197739 306.3499553,34.7408813 306.3278415,34.7627492 306.3066971,34.785432 306.2865949,34.8089839 306.2676074,34.8334593 306.2498074,34.8589124 306.2332676,34.8853977 306.2180608,34.9129694 306.2042595,34.9416818 306.1919365,34.9715891 306.1811645,35.0027459 306.1811645,35.0027459 306.1768543,35.0175386 306.1732403,35.0321884 306.1703162,35.0466846 306.168076,35.0610167 306.1665134,35.0751743 306.1656222,35.0891469 306.1653964,35.102924 306.1658297,35.116495 306.1669161,35.1298494 306.1686493,35.1429768 306.1710231,35.1558666 306.1740315,35.1685084 306.1776682,35.1808916 306.1819271,35.1930057 306.186802,35.2048403 306.1922868,35.2163849 306.1983754,35.2276288 306.2050614,35.2385617 306.2123389,35.249173 306.2202015,35.2594522 306.2286433,35.2693889 306.2376579,35.2789725 306.2472393,35.2881924 306.2573813,35.2970383 306.2680776,35.3054997 306.2793223,35.3135659 306.291109,35.3212265 306.3034317,35.328471 306.3162841,35.335289 306.3296602,35.3416698 306.3435537,35.347603 306.3579585,35.3530782 A0.9148152,0.9148152 106.2530748 0,0 306.4274368,35.370414 L306.4436231,35.3087983 306.4436231,35.3087983 306.476216,35.1820207 306.5076823,35.0549706 306.5076823,35.0549706 306.5382166,34.9317247 306.5693069,34.8082091 306.5842475,34.7460317 306.5983515,34.6834046 306.6112937,34.6202007 306.6227489,34.5562924z" transform="matrix(1,0,0,-1,-303.5246718,39.5110492)" fill="rgb(255,255,255)" stroke="rgb(0,0,0)" stroke-width="0.0010cm" stroke-linecap="round" stroke-linejoin="round" /><path d="M307.3813172,34.4326712 L307.3813172,34.4326712 307.3037438,34.896022 307.3037438,34.896022 307.2688776,35.0934899 307.2651508,35.1099775 A2.2033912,2.2033912 61.247423 0,0 307.2804494,35.1015044 L307.2804494,35.1015044 307.3408583,35.0599711 307.4006465,35.0174246 307.460032,34.9740269 307.5192324,34.9299397 307.637949,34.8403442 307.6979008,34.7951594 307.7585386,34.7499324 307.9072798,34.6477049 307.9072798,34.6477049 307.8830382,34.6181229 307.8579295,34.5905652 307.8319661,34.5649817 307.8051606,34.5413222 307.7775254,34.5195367 307.7490729,34.4995751 307.7198157,34.4813872 307.6897663,34.464923 307.658937,34.4501322 307.6273404,34.4369649 307.5949889,34.425371 307.561895,34.4153002 307.5280711,34.4067025 307.4935299,34.3995279 307.4582836,34.3937261 307.4223448,34.3892471 A1.6501641,1.6501641 272.5300445 0,0 307.3885967,34.3881017 L307.3813172,34.4326712z" transform="matrix(1,0,0,-1,-303.5246718,39.5110492)" fill="rgb(255,255,255)" stroke="rgb(0,0,0)" stroke-width="0.0010cm" stroke-linecap="round" stroke-linejoin="round" /><path d="M309.1083051,30.7717298 L309.1083051,30.7717298 309.084083,30.7686282 309.0599792,30.7675434 309.0360014,30.768303 309.0121574,30.7707349 308.9884547,30.7746668 308.9649012,30.7799266 308.9415043,30.7863419 308.9182719,30.7937406 308.9182719,30.7937406 308.894577,30.8022332 308.871342,30.8114932 308.8485373,30.8214915 308.8261332,30.8321991 308.8041002,30.8435869 308.7824087,30.8556259 308.7610289,30.868287 308.7399313,30.8815412 308.6984642,30.9097126 308.6577703,30.9399078 308.6176127,30.9718944 308.5777543,31.0054399 308.5777543,31.0054399 308.5506556,31.030782 308.5241135,31.0565009 308.498117,31.0825889 308.4726554,31.1090385 308.4477178,31.1358421 308.4232933,31.1629921 308.37594,31.2183009 308.3305087,31.2749042 308.2869124,31.3327413 308.2450641,31.3917515 308.2048768,31.4518741 308.1662637,31.5130483 308.1291377,31.5752134 308.0934119,31.6383087 308.0589994,31.7022735 308.0258131,31.767047 307.9937661,31.8325686 307.9627715,31.8987775 307.9327422,31.965613 307.9327422,31.965613 307.9021463,32.0368472 307.8729112,32.1084952 307.8449924,32.1805428 307.8183457,32.2529756 307.7929266,32.3257793 307.7686908,32.3989397 307.7455939,32.4724422 307.7235916,32.5462727 307.7026394,32.6204167 307.6826929,32.6948601 307.6637079,32.7695883 307.6456399,32.8445872 307.6284446,32.9198423 307.6120775,32.9953394 307.5964944,33.0710641 307.5816508,33.147002 307.5816508,33.147002 307.6302298,33.1209515 307.677198,33.0954686 307.7225861,33.070531 307.7664421,33.0461029 307.8088296,33.0221357 307.849825,32.9985699 307.8895154,32.9753349 307.9279969,32.9523511 307.9653727,32.92953 308.0017522,32.9067749 308.0372496,32.8839814 308.0719835,32.8610382 308.1060752,32.8378274 308.1396481,32.8142248 308.1728268,32.790101 308.2057361,32.7653218 308.238501,32.7397485 308.2712456,32.7132392 308.3040929,32.6856488 308.3371642,32.6568299 308.3705784,32.6266335 308.4044511,32.5949104 308.4388941,32.5615128 308.4740144,32.5262955 308.5099133,32.4891178 308.5466857,32.4498453 308.565427,32.4293834 308.5844189,32.4083509 308.6036708,32.3867336 308.6231917,32.3645179 308.6429899,32.3416915 308.6630727,32.3182429 308.6834469,32.2941618 308.7041183,32.2694392 308.7250917,32.2440674 308.746371,32.2180404 308.7679592,32.1913535 308.789858,32.1640039 308.789858,32.1640039 308.8491018,32.0937099 308.9065953,32.0221703 308.9345983,31.9858819 308.9620588,31.9492203 308.9889421,31.9121648 309.015213,31.8746948 309.0408367,31.8367897 309.0657783,31.7984289 309.0900027,31.7595917 309.1134751,31.7202575 309.1361606,31.6804057 309.1580241,31.6400156 309.1790308,31.5990667 309.1991456,31.5575384 309.1991456,31.5575384 309.2275874,31.4945979 309.2409308,31.462894 309.2535824,31.4310115 309.2654621,31.398933 309.2764896,31.3666413 309.286585,31.3341191 309.2956679,31.3013492 309.3036583,31.2683143 309.310476,31.2349972 309.3160409,31.2013806 309.3202728,31.1674474 309.3230916,31.1331801 309.3244172,31.0985617 309.3241694,31.0635748 309.322268,31.0282022 309.322268,31.0282022 309.3194878,31.0031686 309.315118,30.9790496 309.3091966,30.9559064 309.3017615,30.9338003 309.2928507,30.9127926 309.2825022,30.8929446 309.2707541,30.8743175 309.2576443,30.8569727 309.2432108,30.8409715 309.2274917,30.8263751 309.2105248,30.8132447 309.1923483,30.8016418 309.173,30.7916276 309.1525181,30.7832633 309.1309405,30.7766103 309.1083051,30.7717298z" transform="matrix(1,0,0,-1,-303.5246718,39.5110492)" fill="rgb(255,255,255)" stroke="rgb(0,0,0)" stroke-width="0.0010cm" stroke-linecap="round" stroke-linejoin="round" /></svg>